<?xml version="1.0" standalone="no"?>
<!DOCTYPE svg PUBLIC "-//W3C//DTD SVG 20010904//EN"
 "http://www.w3.org/TR/2001/REC-SVG-20010904/DTD/svg10.dtd">
<svg version="1.0" xmlns="http://www.w3.org/2000/svg"
 width="1050.000000pt" height="1050.000000pt" viewBox="0 0 1050.000000 1050.000000"
 preserveAspectRatio="xMidYMid meet">
<metadata>
Created by potrace 1.16, written by Peter Selinger 2001-2019
</metadata>
<g transform="translate(0.000000,1050.000000) scale(0.100000,-0.100000)"
fill="#0f0f0e" stroke="none">
<path d="M4095 9435 c-150 -15 -351 -46 -445 -71 -36 -9 -87 -22 -115 -29 -59
-15 -235 -67 -285 -85 -243 -87 -411 -163 -565 -254 -38 -24 -92 -55 -120 -70
-284 -159 -712 -524 -886 -757 -22 -28 -60 -74 -85 -103 -26 -28 -57 -67 -70
-86 -13 -19 -43 -62 -66 -95 -75 -105 -262 -447 -303 -555 -7 -19 -22 -57 -33
-85 -77 -193 -98 -254 -128 -365 -144 -538 -177 -999 -105 -1485 18 -121 34
-222 36 -226 2 -3 13 -46 24 -95 43 -187 70 -272 156 -499 15 -38 35 -92 45
-120 10 -27 44 -97 74 -155 31 -58 65 -125 77 -150 63 -133 296 -462 448 -635
197 -223 321 -338 545 -502 61 -45 123 -91 138 -103 14 -11 53 -35 85 -54 32
-18 104 -61 160 -95 210 -128 601 -288 853 -349 178 -43 277 -64 340 -72 36
-5 119 -16 185 -24 141 -19 595 -23 708 -6 40 5 149 22 242 36 266 39 425 82
740 199 104 39 423 196 491 242 32 22 79 50 104 63 25 12 63 37 85 55 22 17
52 38 66 46 14 8 51 34 83 59 408 321 673 617 945 1055 45 72 224 438 234 480
3 11 30 88 60 170 31 83 60 179 67 215 6 36 19 92 29 125 10 33 24 94 30 135
7 41 16 91 21 110 29 118 42 342 38 635 -4 292 -7 322 -49 575 -12 76 -61 286
-89 380 -10 36 -23 81 -29 100 -49 171 -222 551 -322 710 -132 208 -167 261
-249 365 -25 32 -56 74 -69 94 -37 55 -211 230 -371 374 -128 114 -183 160
-329 269 -20 14 -79 52 -131 84 -52 32 -102 63 -110 70 -30 25 -347 184 -366
184 -11 0 -30 7 -43 17 -38 26 -157 69 -431 157 -345 111 -894 161 -1315 121z
m745 -120 c259 -33 410 -66 685 -150 111 -33 159 -52 350 -138 377 -168 849
-508 1075 -773 36 -42 97 -111 135 -154 220 -243 446 -618 568 -940 14 -36 39
-101 56 -145 17 -44 41 -116 53 -160 55 -208 68 -262 68 -287 0 -15 4 -38 10
-52 57 -152 74 -743 31 -1076 -36 -268 -90 -514 -142 -640 -10 -25 -26 -65
-34 -90 -9 -25 -27 -76 -40 -113 -50 -141 -216 -458 -324 -615 -31 -45 -65
-98 -77 -117 -22 -38 -156 -200 -256 -312 -87 -96 -294 -290 -392 -366 -43
-34 -98 -78 -121 -97 -23 -19 -55 -43 -71 -53 -16 -9 -59 -36 -96 -60 -164
-103 -288 -177 -297 -177 -5 0 -43 -17 -84 -38 -41 -21 -110 -53 -153 -70
-186 -73 -264 -102 -275 -102 -6 0 -46 -11 -88 -24 -551 -177 -1354 -190
-1876 -31 -522 159 -834 311 -1196 582 -243 182 -417 354 -687 683 -30 36
-149 213 -214 319 -34 55 -89 165 -198 395 -50 107 -92 223 -138 381 -11 39
-27 95 -36 126 -19 66 -51 231 -72 374 -35 228 -28 766 12 1005 49 295 98 480
186 700 16 41 37 93 45 115 40 111 149 309 308 564 251 401 682 814 1128 1083
106 63 424 221 502 248 232 80 324 107 530 151 182 39 173 37 370 59 204 23
557 20 755 -5z"/>
<path d="M4360 8806 c-36 -44 -70 -466 -37 -466 9 0 21 17 29 42 14 42 35 61
41 36 2 -7 9 -28 15 -47 18 -53 -26 -94 -58 -56 -17 21 -30 3 -30 -41 0 -53
-24 -62 -65 -25 -20 17 -43 32 -53 32 -9 1 -91 3 -182 5 -173 3 -223 -5 -240
-36 -12 -23 -13 -175 -1 -198 5 -9 10 -46 12 -81 7 -115 107 -104 -1007 -103
-1046 2 -994 5 -994 -53 0 -45 25 -54 150 -50 220 7 1506 16 3040 21 2290 7
2060 4 2082 26 22 22 23 32 3 51 -14 15 -541 37 -562 24 -5 -3 -345 -7 -757
-8 -861 -3 -779 -14 -770 100 3 36 8 111 10 166 7 139 18 132 -225 139 -217 6
-213 7 -281 -64 -65 -66 -94 -84 -118 -71 -49 26 -32 71 28 71 50 0 78 29 62
65 -8 17 -8 48 -2 106 8 67 7 86 -6 111 -13 25 -13 35 -4 59 7 16 10 43 6 61
-3 18 -10 59 -15 91 -14 87 -44 125 -71 93z m-203 -599 c15 -14 15 -22 5 -50
-7 -18 -12 -55 -12 -81 0 -51 -18 -69 -46 -45 -12 10 -15 24 -10 56 9 68 -39
107 -79 63 -14 -16 -15 -24 -6 -51 9 -26 8 -37 -4 -56 -30 -46 -55 -24 -55 47
0 37 -28 80 -52 80 -12 0 -10 34 3 47 19 19 236 11 256 -10z m-214 -237 c31
-36 34 -37 63 -5 31 33 67 32 93 -2 20 -28 20 -28 50 5 35 38 56 40 88 10 50
-46 6 -117 -64 -103 -21 4 -45 6 -53 6 -81 -8 -258 -7 -272 0 -26 14 -22 53 8
88 32 39 55 39 87 1z m663 5 c32 -30 36 -30 59 -5 35 38 95 28 95 -17 0 -22
20 -15 50 17 34 36 63 38 95 5 51 -50 15 -112 -58 -101 -23 4 -55 7 -72 6
-249 -4 -291 7 -265 70 22 54 55 63 96 25z"/>
<path d="M1892 7679 c-114 -22 -250 -146 -295 -268 -27 -72 -27 -72 -27 -704
0 -804 1 -813 138 -944 218 -210 572 -108 658 190 24 81 24 81 24 724 0 544
-2 647 -15 675 -8 18 -19 52 -25 76 -15 58 -101 158 -173 201 -87 51 -189 69
-285 50z m163 -300 c67 -60 64 -23 65 -711 2 -701 5 -673 -71 -727 -69 -51
-140 -28 -184 59 -25 49 -25 49 -25 662 0 573 2 616 19 653 43 95 129 123 196
64z"/>
<path d="M3877 7661 c-116 -47 -186 -112 -248 -231 -34 -65 -34 -65 -34 -775
0 -710 0 -710 48 -787 74 -118 154 -178 275 -203 187 -39 362 54 449 241 34
73 42 305 33 1024 -6 445 -6 445 -42 516 -93 181 -317 281 -481 215z m198
-282 c69 -61 65 -23 64 -713 -1 -620 -1 -625 -22 -668 -60 -118 -193 -109
-248 17 -24 57 -29 1256 -5 1303 51 98 139 124 211 61z"/>
<path d="M6760 7657 c-138 -57 -213 -136 -261 -275 -25 -71 -29 -1298 -5
-1409 90 -419 677 -424 777 -5 31 126 29 1298 -2 1398 -72 239 -309 373 -509
291z m191 -263 c20 -10 39 -33 55 -67 24 -52 24 -52 24 -665 0 -491 -3 -619
-13 -645 -22 -50 -91 -107 -131 -107 -43 0 -120 57 -135 101 -18 51 -15 1269
3 1312 32 77 122 110 197 71z"/>
<path d="M2735 7643 c-92 -3 -123 -7 -137 -20 -16 -15 -17 -70 -17 -955 0
-1100 -16 -980 132 -977 135 3 138 6 130 129 -8 127 0 140 91 140 187 1 325
78 404 223 56 103 55 85 53 624 -1 471 -2 495 -22 545 -49 126 -126 211 -236
260 -37 16 -218 41 -263 36 -8 -1 -69 -4 -135 -5z m351 -317 c44 -43 44 -43
47 -432 3 -560 5 -521 -26 -581 -33 -63 -67 -84 -153 -91 -115 -9 -111 -43
-106 903 1 259 -5 245 115 245 80 0 80 0 123 -44z"/>
<path d="M5874 7643 c-262 -4 -260 -3 -265 -83 -10 -172 5 -201 99 -193 112
10 102 91 102 -841 0 -707 2 -806 15 -820 19 -19 205 -20 231 -2 14 11 16 85
15 800 -1 434 -4 792 -7 797 -25 40 43 82 120 73 85 -10 96 7 96 144 0 132 -1
133 -99 130 -42 -2 -180 -4 -307 -5z"/>
<path d="M4617 7625 c-15 -15 -17 -62 -18 -478 -2 -695 1 -1429 6 -1437 3 -4
52 -11 110 -15 143 -10 145 -8 145 129 0 134 11 147 112 139 77 -7 84 -19 137
-209 15 -54 39 -64 161 -64 104 0 138 13 126 49 -2 9 -27 81 -55 161 -60 169
-60 172 -21 229 89 131 85 98 85 676 0 599 3 579 -118 703 -114 117 -142 126
-418 130 -209 3 -238 2 -252 -13z m462 -274 c66 -46 76 -109 64 -376 -2 -27 0
-177 3 -331 7 -365 -6 -400 -159 -419 -63 -8 -111 5 -122 33 -10 26 -6 423 5
482 7 35 7 73 0 114 -5 33 -10 157 -10 274 0 262 -2 257 118 247 48 -4 86 -13
101 -24z"/>
<path d="M2495 5553 c-121 -62 -151 -115 -165 -298 -7 -77 -9 -163 -5 -191 3
-28 6 -213 6 -410 1 -412 -3 -394 85 -394 70 0 84 15 84 89 0 78 23 101 101
101 76 0 99 -24 99 -102 0 -69 18 -88 82 -88 95 0 89 -41 86 570 -4 598 -2
584 -74 660 -81 87 -203 113 -299 63z m150 -175 c52 -41 55 -60 55 -405 0
-373 3 -363 -101 -363 -104 0 -102 -7 -97 380 4 280 7 329 21 357 30 56 75 68
122 31z"/>
<path d="M3870 5571 c-69 -22 -140 -82 -173 -148 -21 -41 -26 -146 -29 -583
-2 -451 -3 -447 84 -526 53 -49 103 -68 178 -68 157 0 258 98 274 265 8 81 -9
103 -83 105 -59 2 -78 -14 -86 -75 -17 -127 -112 -172 -172 -82 -34 50 -36
844 -3 899 57 92 170 43 170 -74 0 -62 24 -84 93 -84 76 0 86 14 78 110 -7 84
-38 148 -96 199 -49 43 -183 78 -235 62z"/>
<path d="M5741 5550 c-69 -38 -87 -55 -116 -105 -33 -57 -34 -74 -40 -642 -6
-586 -13 -543 84 -543 74 0 97 20 86 76 -13 74 25 114 110 114 65 0 85 -23 85
-99 0 -76 14 -91 85 -91 93 0 86 -44 83 574 -3 599 1 558 -70 649 -75 94 -207
124 -307 67z m153 -161 c55 -43 56 -50 56 -408 0 -330 0 -330 -26 -350 -39
-31 -117 -29 -148 2 -35 35 -40 640 -7 706 36 70 78 87 125 50z"/>
<path d="M1680 5540 c-31 -19 -31 -1251 0 -1270 24 -15 257 -10 320 7 45 12
66 26 112 73 88 90 88 89 89 567 0 403 0 403 -26 461 -63 137 -130 172 -332
172 -81 0 -155 -5 -163 -10z m292 -171 c51 -28 52 -34 54 -453 2 -391 2 -391
-22 -429 -37 -57 -114 -77 -153 -38 -17 17 -18 43 -19 456 -1 437 -1 437 24
462 26 26 70 26 116 2z"/>
<path d="M3004 5539 c-3 -6 -6 -289 -5 -628 2 -693 -2 -651 76 -651 91 0 89
-9 90 368 0 235 3 334 12 343 22 22 54 -4 120 -103 67 -101 67 -101 65 -335
-4 -277 -5 -273 88 -273 95 0 88 -53 84 648 -2 458 -6 617 -14 628 -8 9 -32
14 -70 14 -91 0 -92 -2 -86 -219 6 -251 -12 -267 -122 -106 -31 46 -92 136
-136 200 -84 124 -91 131 -102 114z"/>
<path d="M4361 5541 c-8 -5 -17 -29 -21 -54 -11 -73 -2 -1198 10 -1212 20 -24
395 -20 420 5 31 31 28 103 -6 137 -25 25 -28 25 -117 18 -151 -11 -146 -21
-142 288 1 138 3 255 4 259 4 24 61 36 151 32 117 -5 130 3 130 86 0 83 -11
90 -142 90 -122 0 -148 15 -148 82 0 85 22 108 102 108 74 0 88 14 88 89 0 31
-5 62 -12 69 -14 14 -295 17 -317 3z"/>
<path d="M4926 5534 c-22 -21 -24 -1234 -3 -1252 25 -21 114 -26 142 -8 25 16
25 16 25 361 0 332 1 346 20 365 29 29 108 28 145 -2 28 -22 28 -22 22 -357
-4 -185 -3 -341 1 -347 13 -21 51 -34 95 -34 82 0 77 -43 77 647 0 698 8 643
-92 643 -84 0 -87 -6 -82 -177 6 -177 -3 -194 -101 -189 -83 4 -85 9 -85 187
0 176 -2 179 -90 179 -40 0 -64 -5 -74 -16z"/>
<path d="M6266 5534 c-26 -26 -24 -1234 2 -1257 16 -15 46 -17 205 -17 225 0
234 4 223 94 -10 75 -18 79 -142 81 -91 1 -109 4 -120 20 -11 15 -14 115 -14
541 0 595 6 554 -85 554 -35 0 -59 -5 -69 -16z"/>
<path d="M6807 5532 c-28 -31 -26 -1223 2 -1251 18 -18 35 -20 206 -20 221 1
225 3 225 92 0 80 -12 87 -137 81 -158 -7 -143 -66 -143 560 0 464 -2 526 -16
540 -23 23 -116 22 -137 -2z"/>
<path d="M5156 4173 c-1 -1 -2186 -14 -3016 -17 -173 0 -321 -5 -328 -9 -16
-11 -15 -52 2 -66 30 -25 5213 -10 5254 15 26 17 29 46 7 64 -13 11 -1908 24
-1919 13z"/>
</g>
</svg>
